<?xml version="1.0" encoding="UTF-8"?>
<svg id="lemonrasp" xmlns="http://www.w3.org/2000/svg" version="1.1" viewBox="0 0 41.3 25.3">
  <!-- Generator: Adobe Illustrator 29.6.1, SVG Export Plug-In . SVG Version: 2.1.1 Build 9)  -->
  <defs>
    <style>
      .st0, .st1 {
        stroke-linejoin: round;
      }

      .st0, .st1, .st2, .st3 {
        stroke: #231f20;
        stroke-width: .5px;
      }

      .st0, .st1, .st3 {
        stroke-linecap: round;
      }

      .st0, .st3 {
        fill: none;
      }

      .st1 {
        fill: #ed174c;
      }

      .st2 {
        fill: #f9da04;
      }

      .st2, .st3 {
        stroke-miterlimit: 10;
      }

      .st4 {
        fill: #fffef6;
      }

      .st5 {
        fill: #f9da02;
      }
    </style>
  </defs>
  <g id="leftcherry">
    <path class="st1" d="M15.4,10.9c.6-.9.3-2.2-.6-2.8,0,0,0,0-.1,0h0c.4-.6.2-1.4-.4-1.8-.2-.1-.4-.2-.6-.2.3-.8,0-1.7-.7-2.1-.4-.2-.8-.3-1.2-.2,0-.7-.4-1.4-1.1-1.8-.9-.6-2.1-.4-2.9.4-.1-.1-.2-.3-.4-.4-.8-.5-1.9-.2-2.4.6-.2.4-.3.8-.2,1.3-.7-.2-1.4,0-1.8.7-.2.3-.3.7-.2,1.1-.8,0-1.5.4-2,1.1-.5.8-.4,1.9.2,2.6-.2.1-.3.3-.4.4C0,10.4.3,11.5,1.1,12c-.5.8-.2,1.9.6,2.4.5.3,1,.3,1.5.2.2.4.5.8.9,1,.9.5,2,.4,2.7-.2.1.2.3.3.5.5.8.5,1.9.2,2.4-.6,0,0,0,0,0,0,.7.2,1.4,0,1.8-.7.2-.3.2-.6.2-.9.8.3,1.7,0,2.1-.7.2-.4.3-.8.2-1.2.6,0,1.1-.4,1.4-.9h0Z"/>
    <path class="st0" d="M8.9,10.4s1.1,1.8,2.9.3"/>
    <path class="st0" d="M3.2,7.3s-1.1.9,0,1.8"/>
    <path class="st0" d="M9.8,5s-.6-1.7-1.9-.7"/>
    <path class="st0" d="M4.2,12.2s.3,1.5,2.1,1.3"/>
  </g>
  <g id="rightberry">
    <path class="st1" d="M20.5,11.7c0-1.1-.9-2-2-2s0,0-.1,0h0c0-.8-.6-1.4-1.3-1.4s-.4,0-.6.2c-.2-.8-.9-1.4-1.7-1.4s-.8.2-1.1.4c-.4-.6-1.1-1-1.9-1-1.1,0-2,.8-2.2,1.8-.2,0-.3,0-.5,0-1,0-1.8.8-1.8,1.8s.2.9.5,1.2c-.7.2-1.2.8-1.2,1.5s.2.8.4,1c-.7.4-1.1,1.1-1.1,1.9s.6,1.8,1.5,2.1c0,.2-.1.4-.1.6,0,1,.8,1.8,1.8,1.8,0,1,.8,1.8,1.8,1.8s1-.2,1.3-.6c.4.2.8.4,1.3.4,1,0,1.9-.7,2.2-1.6.2,0,.4.1.7.1,1,0,1.8-.8,1.8-1.8h0c.7-.2,1.2-.8,1.2-1.6s0-.6-.2-.8c.8-.1,1.5-.9,1.5-1.7s-.2-.8-.4-1.1c.4-.4.7-.9.7-1.5h0Z"/>
    <path class="st0" d="M14.8,14.7s1.9.9,2.6-1.3"/>
    <path class="st0" d="M8.3,15s-.5,1.3,1,1.4"/>
    <path class="st0" d="M12.7,9.7s-1.4-1.1-2,.4"/>
    <path class="st0" d="M11.7,18.8s1,1.1,2.5,0"/>
  </g>
  <path id="rightstem" class="st3" d="M19.7,6.1s-2.8,0-3.3,2.4"/>
  <path id="leftstem" class="st3" d="M17.6,5.7s-2.4-1.4-4,.3"/>
  <g id="lemonr">
    <path id="lemonrind" class="st2" d="M10.1,17.3c6,10.5,22.2,10.2,28.3,0,2.6-4.1,3.3-9.4,1.9-14.1-.5-1.4-.7-2.6-1.8-2.9-.4,0-.8.2-1.2.4-4.1,2.4-15.8,9.1-21.4,12.4-1,.6-1.9,1.1-2.9,1.7-1.9,1.1-3.1,1.5-2.9,2.6h0Z"/>
    <path id="lemonfleshr" class="st4" d="M11.7,17.1c6.9,10.6,24.1,7.3,27.4-5,.9-2.1,1-11.8-2.5-10.6-4.5,2.3-14.4,8.3-19.9,11.4-2,1.4-5.6,2.5-4.9,4.1h0c0,.1,0,.1,0,.1h0Z"/>
    <g id="lemonpulpr">
      <path id="lemonpulp3" class="st5" d="M33.8,15.3c-.4-.7-1-1.2-1.4-1.5-.3-.2-.7-.4-1-.6-1.3-.9-2.6-1.7-3.9-2.5-.7-.5-1.5-.6-2.2-.3,0,0,0,0,0,0,0,0,0,0,0,0-.7.4-1,1.2-.9,2.1,0,1.5.2,3.1.3,4.6,0,.4,0,.8,0,1.2,0,.4.2,1.2.6,1.9.2.3.4.5.6.8,1.8,1.7,4.6.3,5.3-.1,0,0,0,0,0,0,0,0,0,0,0,0,0,0,0,0,0,0h0s0,0,0,0c0,0,0,0,0,0,0,0,0,0,0,0,.6-.4,3.3-2.2,2.8-4.6,0-.3-.2-.6-.4-.9,0,0,0,0,0,0Z"/>
      <path id="lemonpulp2" class="st5" d="M35.1,3.9c-.8,0-1.5.2-1.9.4-.3.2-.7.3-1,.5-1.4.7-2.8,1.3-4.1,2-.8.3-1.3,1-1.4,1.8,0,0,0,0,0,0,0,0,0,0,0,0,0,.8.5,1.5,1.3,1.8,1.4.7,2.7,1.4,4.1,2.1.3.2.7.4,1,.6.4.2,1.1.5,1.9.5.3,0,.6,0,1-.1,2.3-.7,2.6-3.8,2.7-4.6h0v-.3c0-.8-.2-3.9-2.5-4.7-.3-.1-.7-.2-1-.2h0s0,0,0,0Z"/>
      <path id="lemonpulp1" class="st5" d="M14.7,15.6c.4-.7,1-1.2,1.3-1.5.3-.2.6-.4,1-.6,1.3-.9,2.5-1.7,3.8-2.6.6-.6,1.5-.7,2.2-.3,0,0,0,0,0,0,0,0,0,0,0,0,.7.4,1,1.2.9,2,0,1.5-.1,3.1-.2,4.6,0,.4,0,.8,0,1.2,0,.4-.1,1.2-.5,1.9-.1.3-.3.5-.6.8-1.7,1.7-4.6.3-5.3,0,0,0,0,0,0,0,0,0,0,0,0,0,0,0,0,0,0,0h0s0,0,0,0c0,0,0,0,0,0,0,0,0,0,0,0-.7-.4-3.3-2.1-2.9-4.5,0-.3.2-.6.4-.9,0,0,0,0,0,0Z"/>
    </g>
  </g>
</svg>