<?xml version="1.0" encoding="UTF-8"?>
<svg id="lime" xmlns="http://www.w3.org/2000/svg" viewBox="0 0 31.48 25.28">
  <defs>
    <style>
      .cls-1 {
        fill: #fffef7;
      }

      .cls-2 {
        fill: #a4d284;
      }

      .cls-3 {
        fill: #259b48;
        stroke: #231f20;
        stroke-miterlimit: 10;
        stroke-width: .5px;
      }
    </style>
  </defs>
  <path id="limerind" class="cls-3" d="M.3,17.29c5.99,10.52,22.16,10.16,28.32-.05,2.6-4.07,3.31-9.35,1.91-14.05-.5-1.43-.68-2.6-1.85-2.93-.4-.04-.81.15-1.2.35-4.13,2.37-15.79,9.11-21.44,12.37-.98.57-1.92,1.11-2.87,1.66-1.87,1.13-3.11,1.51-2.89,2.56,0,0,.02.09.02.09Z"/>
  <path id="limeflesh" class="cls-1" d="M1.88,17.19c6.94,10.63,24.15,7.31,27.38-4.98.87-2.05.99-11.81-2.55-10.59-4.5,2.33-14.38,8.28-19.92,11.4-2.03,1.39-5.55,2.5-4.95,4.08l.03.1h.01Z"/>
  <g id="limepulp">
    <path id="limepulp3" class="cls-2" d="M24.06,15.34c-.41-.72-1.02-1.21-1.37-1.46l-.99-.63c-1.28-.85-2.57-1.69-3.85-2.54-.66-.54-1.53-.65-2.21-.28-.03.01-.04.04-.07.05s-.05.02-.08.03c-.67.4-1.01,1.21-.87,2.05.09,1.53.18,3.07.28,4.6.02.39.03.78.05,1.17.04.42.16,1.19.58,1.91.16.28.35.54.6.78,1.78,1.66,4.64.26,5.32-.1,0,0,.02,0,.03-.01.02-.01.04-.02.06-.03,0,0,.02-.01.03-.01h0s.02-.01.03-.02c.02-.01.03-.02.06-.03,0,0,.02-.01.03-.02.65-.4,3.3-2.18,2.75-4.55-.08-.34-.21-.64-.37-.91h-.01Z"/>
    <path id="limepulp2" class="cls-2" d="M25.32,3.91c-.82-.02-1.55.25-1.94.41-.35.17-.69.35-1.04.52-1.38.66-2.76,1.32-4.14,1.98-.8.28-1.34.97-1.37,1.75,0,.03.01.06.01.08,0,.03-.01.05-.01.08,0,.78.51,1.49,1.3,1.8,1.35.72,2.7,1.43,4.05,2.15.34.19.68.38,1.02.57.38.18,1.1.48,1.92.49.31.01.64-.02.97-.11,2.33-.66,2.61-3.84,2.65-4.6v-.13h0v-.15c0-.76-.16-3.95-2.46-4.71-.33-.11-.65-.15-.97-.15v.02Z"/>
    <path id="limepulp1" class="cls-2" d="M4.92,15.69c.4-.72.99-1.22,1.33-1.47.33-.21.65-.43.98-.64,1.26-.86,2.52-1.73,3.78-2.59.64-.55,1.51-.67,2.2-.31.03.01.04.04.07.05s.05.01.08.03c.67.39,1.03,1.19.91,2.03-.06,1.53-.11,3.05-.17,4.58,0,.39-.01.78-.02,1.17-.03.42-.13,1.19-.53,1.91-.15.28-.34.55-.58.79-1.74,1.69-4.63.34-5.31,0,0,0-.02,0-.03-.01l-.06-.03s-.02-.01-.03-.01h0s-.02-.01-.03-.02c-.02,0-.03-.02-.06-.03,0,0-.02-.01-.03-.02-.66-.39-3.34-2.11-2.85-4.48.07-.34.2-.64.35-.91v-.04Z"/>
  </g>
</svg>